{"asset":{"version":"2.0","generator":"babylon.js glTF exporter for Autodesk MAYA 2023 v20220628.14"},"scene":0,"scenes":[{"nodes":[0,9,11,12,13,14,15]}],"nodes":[{"children":[1,2,3,6],"translation":[-0.157672569,0.0,0.0],"name":"ErrorTextMeshclean"},{"name":"transform1"},{"name":"transform2"},{"children":[4,5],"name":"ErrorTextMesh2"},{"name":"transform1 (1)"},{"name":"transform2 (1)"},{"children":[7,8],"mesh":0,"name":"ErrorTextMesh4"},{"name":"transform1 (2)"},{"name":"transform2 (2)"},{"children":[10],"translation":[-0.162665814,-0.0103561673,-0.00312547525],"scale":[1.32141221,1.32141221,1.0],"name":"bg_errornode_SVG"},{"mesh":1,"name":"bg_errornode_SVG1"},{"translation":[-0.375617862,0.0502178036,0.0],"scale":[18.9834843,18.9834843,18.9834843],"name":"MASH_EN_Logo1"},{"translation":[-0.162665814,-0.0103561673,-0.00312547525],"scale":[1.32141221,1.32141221,1.0],"name":"transform3"},{"translation":[-0.162665814,-0.0103561673,-0.00312547525],"scale":[1.32141221,1.32141221,1.0],"name":"transform4"},{"translation":[-0.376498967,0.0507875681,0.0],"scale":[22.705555,22.705555,22.705555],"name":"MASH_BG_EN1"},{"camera":0,"translation":[-0.001480223,0.0517913029,0.516897],"rotation":[0.0,-0.00698126,0.0,0.9999756],"name":"camera1"}],"cameras":[{"perspective":{"yfov":0.6605947,"zfar":10000.0,"znear":0.1},"type":"perspective","name":"camera1"}],"meshes":[{"primitives":[{"attributes":{"POSITION":1,"NORMAL":2},"indices":0}],"name":"ErrorTextMesh4"},{"primitives":[{"attributes":{"POSITION":4,"NORMAL":5,"TEXCOORD_0":6},"indices":3}],"name":"bg_errornode_SVG1"}],"accessors":[{"bufferView":0,"componentType":5123,"count":15438,"type":"SCALAR","name":"accessorIndices"},{"bufferView":1,"componentType":5126,"count":2593,"max":[0.3532308,0.09999999,0.0100999987],"min":[0.0,-6.00528347E-06,0.0],"type":"VEC3","name":"accessorPositions"},{"bufferView":1,"byteOffset":31116,"componentType":5126,"count":2593,"type":"VEC3","name":"accessorNormals"},{"bufferView":0,"byteOffset":30876,"componentType":5123,"count":6774,"type":"SCALAR","name":"accessorIndices"},{"bufferView":1,"byteOffset":62232,"componentType":5126,"count":1462,"max":[0.2760153,0.08691002,0.0100100012],"min":[0.0,-5.96046434E-10,-2.98023217E-10],"type":"VEC3","name":"accessorPositions"},{"bufferView":1,"byteOffset":79776,"componentType":5126,"count":1462,"type":"VEC3","name":"accessorNormals"},{"bufferView":2,"componentType":5126,"count":1462,"type":"VEC2","name":"accessorUVs"}],"bufferViews":[{"buffer":0,"byteLength":44424,"name":"bufferViewScalar"},{"buffer":0,"byteOffset":44424,"byteLength":97320,"byteStride":12,"name":"bufferViewFloatVec3"},{"buffer":0,"byteOffset":141744,"byteLength":11696,"byteStride":8,"name":"bufferViewFloatVec2"}],"buffers":[{"uri":"errorNode-Test.bin","byteLength":153440}]}